# xmcd CD database file
#
# Track frame offsets:
#	150
#	22511
#	45193
#	66737
#	79417
#	89923
#	102153
#	117851
#	147316
#	178626
#	208792
#	229188
#	247194
#	268520
#	291651
#	313228
#
# Disc length: 4409 seconds
#
# Revision: 0
# Processed by: cddbd v1.5.1PL2 Copyright (c) Steve Scherf et al.
# Submitted via: CDex 1.51
#
DISCID=f4113710
DTITLE=Various Artist - WaMu 1
DYEAR=2005
DGENRE=Jazz
TTITLE0=Alonzo Blackwell - Breezin
TTITLE1=Alonzo Blackwell - Love Is The Message
TTITLE2=Alonzo Blackwell - One Sweet Day
TTITLE3=Antonio Carlos Jobim - Desafinado
TTITLE4=Antonio Carlos Jobim - Samba De Uma Nota So (One Note Samba)
TTITLE5=Antonio Carlos Jobim - Triste
TTITLE6=Art Of Noise - Dragnet Theme
TTITLE7=Barbara Dennerlein - Killer Joe
TTITLE8=Barbara Dennerlein - Wow!
TTITLE9=Art of Noise - Wet Dream
TTITLE10=Art of Noise - Moments in Love (Sexual Mix)
TTITLE11=Art Of Noise  - Beatbox Diversion 10
TTITLE12=Carlos Santana - Samba Pa Ti
TTITLE13=Carlos Santana - Carlos Santana - Europa
TTITLE14=Gerald Albright - So Amazing
TTITLE15=Jan Hammer - Knight Rider 2000
EXTD=YEAR: 2005
EXTT0=
EXTT1=
EXTT2=
EXTT3=
EXTT4=
EXTT5=
EXTT6=
EXTT7=
EXTT8=
EXTT9=
EXTT10=
EXTT11=
EXTT12=
EXTT13=
EXTT14=
EXTT15=
PLAYORDER=
